<?xml version="1.0" ?><svg viewBox="0 0 64 64" xmlns="http://www.w3.org/2000/svg"><g data-name="07 remove basket" id="_07_remove_basket"><path fill="#0C120C" d="M57.46,25.36H40.18L53.86,11.67a4.406,4.406,0,0,0,.01-6.24l-.1-.09a4.418,4.418,0,0,0-6.24,0L29.31,23.56a4.387,4.387,0,0,0-1.07,1.8H6.54A3.039,3.039,0,0,0,3.5,28.4v2.51a3.039,3.039,0,0,0,3.04,3.04h.17l3.53,20.24a6.641,6.641,0,0,0,6.31,5.76h30.9a6.641,6.641,0,0,0,6.31-5.76l3.53-20.24h.17a3.039,3.039,0,0,0,3.04-3.04V28.4A3.039,3.039,0,0,0,57.46,25.36Zm-27.4.95a2.352,2.352,0,0,1,.67-1.34L48.95,6.75a2.414,2.414,0,0,1,3.41,0l.09.09a2.414,2.414,0,0,1,0,3.42L34.23,28.48a2.461,2.461,0,0,1-3.41-.01l-.09-.08a2.417,2.417,0,0,1-.69-1.9.5.5,0,0,0,.03-.13C30.07,26.34,30.06,26.33,30.06,26.31ZM51.79,53.84a4.645,4.645,0,0,1-4.34,4.11H16.55a4.645,4.645,0,0,1-4.34-4.11L8.75,33.95h46.5ZM58.5,30.91a1.039,1.039,0,0,1-1.04,1.04H6.54A1.039,1.039,0,0,1,5.5,30.91V28.4a1.039,1.039,0,0,1,1.04-1.04H28.09a4.44,4.44,0,0,0,1.22,2.44h.01l.08.09a4.43,4.43,0,0,0,6.25,0l2.53-2.53H57.46A1.039,1.039,0,0,1,58.5,28.4Z"/><path d="M32.968,27.36a1,1,0,0,0,.682-.269l2.033-1.9a1,1,0,0,0-1.366-1.462l-2.032,1.9a1,1,0,0,0,.683,1.731Z"/><path fill="#0C120C" d="M39.78,49.49l-3.54-3.54,3.54-3.54a1.992,1.992,0,0,0,0-2.82l-1.42-1.42a1.992,1.992,0,0,0-2.82,0L32,41.71l-3.54-3.54a1.992,1.992,0,0,0-2.82,0l-1.42,1.42a1.992,1.992,0,0,0,0,2.82l3.54,3.54-3.54,3.54a1.98,1.98,0,0,0,0,2.82l1.42,1.42a2,2,0,0,0,2.82,0L32,50.19l3.54,3.54a2,2,0,0,0,2.82,0l1.42-1.42a1.98,1.98,0,0,0,0-2.82Zm-2.83,2.83-4.24-4.25a1.008,1.008,0,0,0-1.42,0l-4.24,4.25L25.63,50.9l4.25-4.24a1.008,1.008,0,0,0,0-1.42L25.63,41l1.42-1.42,4.24,4.25a1.008,1.008,0,0,0,1.42,0l4.24-4.25L38.37,41l-4.25,4.24a1.008,1.008,0,0,0,0,1.42l4.25,4.24Z"/></g></svg>